<svg xmlns:dc="http://purl.org/dc/elements/1.1/" xmlns:cc="http://creativecommons.org/ns#" xmlns:rdf="http://www.w3.org/1999/02/22-rdf-syntax-ns#" xmlns:svg="http://www.w3.org/2000/svg" xmlns="http://www.w3.org/2000/svg" xmlns:sodipodi="http://sodipodi.sourceforge.net/DTD/sodipodi-0.dtd" xmlns:inkscape="http://www.inkscape.org/namespaces/inkscape" viewBox="0 0 16.933333 21.1666675" version="1.1" x="0px" y="0px"><g transform="translate(0,-280.06665)"><path style="color:#000000;font-style:normal;font-variant:normal;font-weight:normal;font-stretch:normal;font-size:medium;line-height:normal;font-family:sans-serif;font-variant-ligatures:normal;font-variant-position:normal;font-variant-caps:normal;font-variant-numeric:normal;font-variant-alternates:normal;font-feature-settings:normal;text-indent:0;text-align:start;text-decoration:none;text-decoration-line:none;text-decoration-style:solid;text-decoration-color:#000000;letter-spacing:normal;word-spacing:normal;text-transform:none;writing-mode:lr-tb;direction:ltr;text-orientation:mixed;dominant-baseline:auto;baseline-shift:baseline;text-anchor:start;white-space:normal;shape-padding:0;clip-rule:nonzero;display:inline;overflow:visible;visibility:visible;opacity:1;isolation:auto;mix-blend-mode:normal;color-interpolation:sRGB;color-interpolation-filters:linearRGB;solid-color:#000000;solid-opacity:1;vector-effect:none;fill:#000000;fill-opacity:1;fill-rule:nonzero;stroke:none;stroke-width:0.5291667;stroke-linecap:round;stroke-linejoin:round;stroke-miterlimit:4;stroke-dasharray:none;stroke-dashoffset:0;stroke-opacity:1;color-rendering:auto;image-rendering:auto;shape-rendering:auto;text-rendering:auto;enable-background:accumulate" d="m 16.404672,289.59066 v -5.55418 c 0,-0.72832 -0.59563,-1.32446 -1.323949,-1.32446 -0.728318,0 -1.3224,0.59614 -1.3224,1.32446 v 2.78588 c -0.762453,-0.28663 -2.754964,-0.93431 -5.2911512,-0.93431 -2.5361848,0 -4.5297302,0.64768 -5.2926986,0.93431 v -2.78588 c 0,-0.72832 -0.5940822,-1.32446 -1.3224007,-1.32446 l 1.06e-5,-5e-5 c -0.7283212,0 -1.3224008,0.59614 -1.3224008,1.32446 v 5.55418 c 0,0.82313 0.1355064,1.59736 0.4960938,2.24638 0.3605874,0.64902 0.9526931,1.16219 1.8040191,1.44618 0.084259,0.0365 2.4588338,1.07153 5.6373766,1.07153 3.1899672,0 5.5760252,-1.05055 5.6430652,-1.07253 2.048931,-0.67181 2.294435,-2.59226 2.294435,-3.69151 z M 1.8520831,283.24113 c 0.4443121,0 0.7927155,0.35099 0.7927155,0.7953 v 3.96875 c 0,0.35313 0.5296852,0.35313 0.5296852,0 v -0.61443 c 0.3875696,-0.16073 2.471711,-0.97359 5.2926986,-0.97359 2.9593966,0 5.0719356,0.88838 5.2911506,0.98237 v 3.7791 c 0,0.35287 0.529167,0.35287 0.529167,0 v -7.1422 c 0,-0.44431 0.348919,-0.7953 0.793234,-0.7953 0.444312,0 0.794782,0.35099 0.794782,0.7953 v 5.55418 c 0,0.76438 -0.128654,1.44715 -0.42943,1.98851 -0.250235,0.4504 -0.617325,0.80996 -1.158586,1.06092 v -0.40256 c 0,-0.35286 -0.529167,-0.35286 -0.529167,0 v 0.60513 c -0.219215,0.094 -2.331754,0.98289 -5.2911506,0.98289 -2.9593938,0 -5.0734834,-0.8889 -5.2926986,-0.98289 v -3.78116 c 0.00159,-0.14847 -0.119216,-0.26936 -0.2676843,-0.26768 -0.1461743,0.002 -0.2636466,0.12151 -0.2620009,0.26768 v 3.57756 c -0.5398612,-0.25092 -0.9061583,-0.6102 -1.1560017,-1.05989 -0.3007757,-0.54136 -0.4294293,-1.22413 -0.4294293,-1.98851 v -5.55418 c 0,-0.44431 0.3484007,-0.7953 0.7927155,-0.7953 z m 6.6145833,4.26899 c -1.4621219,0 -3.0011396,0.29775 -4.1325641,0.58549 -0.3531156,0.0803 -0.2177071,0.61125 0.1307412,0.51263 1.1042676,-0.28084 2.6121757,-0.56895 4.0018229,-0.56895 1.3894726,0 2.8978786,0.28814 4.0023386,0.56895 0.350539,0.10188 0.486889,-0.43485 0.130226,-0.51263 -1.13161,-0.28771 -2.6706279,-0.58549 -4.1325646,-0.58549 z m -3.96875,2.34611 c -0.3578013,-0.005 -0.3578013,0.53423 0,0.52917 h 7.9374996 c 0.357802,0.005 0.357802,-0.53423 0,-0.52917 z m -0.1658805,2.30064 c 1.1313901,0.2981 2.6709529,0.60978 4.1346305,0.60978 1.4635295,0 3.0030476,-0.31119 4.1346306,-0.60927 0.34141,-0.0899 0.206536,-0.60203 -0.134874,-0.51211 -1.104461,0.29094 -2.612009,0.59221 -3.9997566,0.59221 -1.3878851,0 -2.8954968,-0.30125 -3.9997565,-0.59221 -0.3257365,-0.0873 -0.48024,0.40854 -0.134874,0.5116 z"/></g><text x="0" y="31.933334" fill="#000000" font-size="5px" font-weight="bold" font-family="'Helvetica Neue', Helvetica, Arial-Unicode, Arial, Sans-serif">Created by Nawicon</text><text x="0" y="36.933334" fill="#000000" font-size="5px" font-weight="bold" font-family="'Helvetica Neue', Helvetica, Arial-Unicode, Arial, Sans-serif">from the Noun Project</text></svg>