<svg xmlns:dc="http://purl.org/dc/elements/1.1/" xmlns:cc="http://creativecommons.org/ns#" xmlns:rdf="http://www.w3.org/1999/02/22-rdf-syntax-ns#" xmlns:svg="http://www.w3.org/2000/svg" xmlns="http://www.w3.org/2000/svg" xmlns:sodipodi="http://sodipodi.sourceforge.net/DTD/sodipodi-0.dtd" xmlns:inkscape="http://www.inkscape.org/namespaces/inkscape" viewBox="0 0 26.458333 33.0729175" version="1.1" x="0px" y="0px"><g transform="translate(131.02975,-196.70833)"><path style="color:#000000;font-style:normal;font-variant:normal;font-weight:normal;font-stretch:normal;font-size:medium;line-height:normal;font-family:sans-serif;font-variant-ligatures:normal;font-variant-position:normal;font-variant-caps:normal;font-variant-numeric:normal;font-variant-alternates:normal;font-feature-settings:normal;text-indent:0;text-align:start;text-decoration:none;text-decoration-line:none;text-decoration-style:solid;text-decoration-color:#000000;letter-spacing:normal;word-spacing:normal;text-transform:none;writing-mode:lr-tb;direction:ltr;text-orientation:mixed;dominant-baseline:auto;baseline-shift:baseline;text-anchor:start;white-space:normal;shape-padding:0;clip-rule:nonzero;display:inline;overflow:visible;visibility:visible;opacity:1;isolation:auto;mix-blend-mode:normal;color-interpolation:sRGB;color-interpolation-filters:linearRGB;solid-color:#000000;solid-opacity:1;vector-effect:none;fill:#000000;fill-opacity:1;fill-rule:nonzero;stroke:none;stroke-width:1.44050848;stroke-linecap:round;stroke-linejoin:miter;stroke-miterlimit:4;stroke-dasharray:none;stroke-dashoffset:0;stroke-opacity:1;color-rendering:auto;image-rendering:auto;shape-rendering:auto;text-rendering:auto;enable-background:accumulate" d="m -117.80058,196.97291 c -7.15695,3e-5 -12.9646,5.80765 -12.96457,12.9646 0,7.15692 5.80762,12.96457 12.96457,12.96457 7.15695,0 12.96457,-5.80765 12.96457,-12.96457 3e-5,-7.15695 -5.80762,-12.9646 -12.96457,-12.9646 z m 0,0.5403 c 6.86499,0 12.4243,5.55928 12.42427,12.4243 0,6.86499 -5.55928,12.42459 -12.42427,12.42459 -6.86499,0 -12.42418,-5.5596 -12.42418,-12.42459 0,-6.86499 5.55919,-12.42427 12.42418,-12.4243 z m 5.18476,3.96335 a 0.27012236,0.27012236 0 0 0 -0.18552,0.0814 l -2.94764,2.94804 c -0.77432,0.70666 -1.0171,1.87558 -0.60498,2.82735 -0.65457,0.61014 -1.30918,1.22021 -1.96375,1.83034 l -1.90198,-1.75829 c 0.24559,-0.4541 0.3599,-0.98325 0.28199,-1.50861 v -5e-4 -4.8e-4 c -0.16659,-1.09533 -0.97476,-1.90706 -1.79288,-2.47476 l -0.002,-0.001 -0.002,-0.002 c -0.85254,-0.56889 -1.87721,-1.01377 -2.96521,-0.96175 h 8e-5 c -0.69981,0.0207 -1.41123,0.43881 -1.62699,1.16392 -0.28229,0.91473 -0.009,1.8523 0.34015,2.63428 l 0.002,0.003 0.002,0.003 c 0.46065,0.97115 1.15685,1.91061 2.16603,2.43443 0.72671,0.38596 1.61803,0.37395 2.33244,-0.0178 l 1.70834,1.84806 c -1.96281,1.82948 -3.92589,3.65884 -5.8887,5.48832 a 0.27014922,0.27014922 0 0 0 -0.006,0.006 0.27012236,0.27012236 0 0 0 -0.002,0.002 c -0.003,0.003 -0.006,0.006 -0.009,0.009 a 0.27014922,0.27014922 0 0 0 -0.003,0.003 c -0.53042,0.54412 -0.52757,1.42254 0.0118,1.96083 0.54,0.53997 1.42206,0.54086 1.96577,0.006 a 0.27014988,0.27014988 0 0 0 0.0148,-0.0148 c 0.003,-0.003 0.006,-0.006 0.009,-0.009 a 0.27012236,0.27012236 0 0 0 0.003,-0.003 c 1.80541,-1.93695 3.61092,-3.87399 5.41634,-5.81094 l 5.38355,5.8236 a 0.27019099,0.27019099 0 0 0 0.006,0.006 0.27012548,0.27012548 0 0 0 0.002,0.003 c 0.001,10e-4 0.003,0.002 0.003,0.003 a 0.27019099,0.27019099 0 0 0 0.009,0.009 c 0.54415,0.52989 1.42189,0.5272 1.96,-0.0118 0.53702,-0.53705 0.54101,-1.41275 0.0148,-1.95713 a 0.27012239,0.27012239 0 0 0 -0.0148,-0.0177 0.27012236,0.27012236 0 0 0 -0.003,-0.002 0.27012239,0.27012239 0 0 0 -0.006,-0.006 l -5.88039,-5.43538 c 0.59176,-0.63486 1.18349,-1.26979 1.77524,-1.90469 0.88756,0.38149 1.96287,0.20505 2.6789,-0.46012 a 0.27012236,0.27012236 0 0 0 0.006,-0.006 c 1.03468,-1.02513 2.0601,-2.05806 3.08963,-3.0849 a 0.27012236,0.27012236 0 0 0 -0.19588,-0.46411 0.27012236,0.27012236 0 0 0 -0.18582,0.0814 c -1.02915,1.02643 -2.05205,2.05762 -3.08277,3.07886 -0.58042,0.53823 -1.50861,0.66393 -2.20899,0.30607 a 0.27012239,0.27012239 0 0 0 -0.1509,-0.053 0.27012239,0.27012239 0 0 0 -0.003,0 0.27012236,0.27012236 0 0 0 -0.24707,0.13197 c -0.62392,0.6694 -1.24767,1.33883 -1.87159,2.0082 l -0.73411,-0.6786 c 0.69349,-0.64632 1.38691,-1.29253 2.08037,-1.93888 a 0.27012239,0.27012239 0 0 0 0.0349,-0.36241 c -0.38359,-0.74432 -0.20239,-1.75695 0.42023,-2.32524 a 0.27012236,0.27012236 0 0 0 0.009,-0.009 l 2.95639,-2.95636 a 0.27012236,0.27012236 0 0 0 -0.19648,-0.4634 z m -5.18476,0.89839 c -0.26098,0 -0.51852,0.0148 -0.77273,0.0391 -0.25417,0.0266 -0.50512,0.0639 -0.7513,0.11451 -0.24618,0.0503 -0.48808,0.11303 -0.72494,0.18671 -0.23701,0.0737 -0.46881,0.1586 -0.69508,0.25447 a 0.27012236,0.27012236 0 1 0 0.21067,0.49733 c 0.21009,-0.0888 0.42535,-0.16777 0.64517,-0.23612 0.21985,-0.0684 0.4442,-0.12635 0.67271,-0.1731 0.22843,-0.0468 0.46098,-0.0823 0.6971,-0.10622 0.23612,-0.0237 0.47588,-0.0364 0.71849,-0.0364 0.24263,0 0.48207,0.0118 0.71816,0.0364 0.23612,0.0237 0.46899,0.0595 0.69751,0.10622 0.22843,0.0467 0.45289,0.10475 0.67271,0.1731 a 0.27012236,0.27012236 0 1 0 0.16038,-0.51559 c -0.23701,-0.0737 -0.47873,-0.13641 -0.72494,-0.18671 -0.24618,-0.0503 -0.49666,-0.0885 -0.75086,-0.11451 -0.25417,-0.0266 -0.51198,-0.0391 -0.77284,-0.0391 z m 6.31282,0.22932 a 0.27012236,0.27012236 0 0 0 -0.18522,0.0817 l -3.0043,3.0043 a 0.27014252,0.27014252 0 1 0 0.38203,0.38203 l 3.00429,-3.00427 a 0.27012236,0.27012236 0 0 0 -0.19677,-0.46381 z m -13.01445,0.38848 c 0.86454,0.009 1.7216,0.37779 2.46568,0.87389 0.75459,0.52408 1.43191,1.23745 1.56462,2.11022 0.0651,0.44221 -0.0515,0.90946 -0.2953,1.29518 a 0.27012239,0.27012239 0 0 0 -0.0639,0.12872 0.27012236,0.27012236 0 0 0 0.13463,0.29965 l 9.4142,8.70222 c 0.33564,0.33717 0.33569,0.87324 4.8e-4,1.20837 -0.33561,0.33561 -0.87274,0.33516 -1.20982,-0.002 l -8.72113,-9.43401 a 0.27012236,0.27012236 0 0 0 -0.15712,-0.10889 0.27012239,0.27012239 0 0 0 -0.0867,-0.009 0.27012239,0.27012239 0 0 0 -0.16629,0.0707 c -0.5664,0.37167 -1.34179,0.40922 -1.94225,0.0899 l -10e-4,-0.001 -0.002,-4.7e-4 c -0.86208,-0.44703 -1.49686,-1.28151 -1.92476,-2.18153 l -3.9e-4,-0.002 c -0.32513,-0.72887 -0.53829,-1.53743 -0.31664,-2.25465 l 4.5e-4,-0.002 2.6e-4,-0.002 c 0.13641,-0.46124 0.63339,-0.76471 1.12893,-0.7793 l 0.003,-4.7e-4 h 0.003 c 0.0577,-0.003 0.1154,-0.003 0.1731,-0.003 z m 13.93838,0.53553 a 0.27012236,0.27012236 0 0 0 -0.18582,0.0817 l -3.00385,3.00429 a 0.27012236,0.27012236 0 1 0 0.38161,0.38203 l 3.00427,-3.00429 a 0.27012236,0.27012236 0 0 0 -0.19618,-0.4637 z m 2.46284,2.03563 a 0.27012236,0.27012236 0 0 0 -0.24204,0.37963 c 1.07326,2.51767 1.07329,5.4706 0,7.98838 a 0.27012236,0.27012236 0 1 0 0.49683,0.21186 c 1.13286,-2.6575 1.1328,-5.75492 0,-8.4123 a 0.27012236,0.27012236 0 0 0 -0.25476,-0.16748 z m -2.7403,1.93162 a 0.27012236,0.27012236 0 0 0 -0.25239,0.35374 c 0.0684,0.21985 0.12634,0.4442 0.17309,0.67272 0.0467,0.22843 0.0826,0.46129 0.10652,0.69739 0.0237,0.23612 0.0364,0.47559 0.0364,0.71819 0,0.24263 -0.0118,0.48248 -0.0364,0.71861 -0.0237,0.23612 -0.0598,0.46843 -0.10652,0.69694 -0.0468,0.22843 -0.10474,0.4529 -0.17309,0.67272 -0.0684,0.21985 -0.14706,0.43529 -0.23613,0.64528 -0.0888,0.21009 -0.18789,0.41464 -0.29592,0.61363 -0.108,0.19913 -0.22547,0.3922 -0.35167,0.579 a 0.27013755,0.27013755 0 1 0 0.44778,0.30228 c 0.13581,-0.2012 0.26245,-0.40889 0.37886,-0.62321 0.11658,-0.21422 0.22281,-0.43496 0.31865,-0.66123 0.0956,-0.22636 0.18019,-0.45819 0.25387,-0.69505 0.0737,-0.23701 0.13611,-0.47873 0.18671,-0.72494 0.0503,-0.24618 0.0888,-0.49669 0.11451,-0.75089 0.0266,-0.25417 0.0391,-0.51231 0.0391,-0.77314 0,-0.26098 -0.0118,-0.51864 -0.0391,-0.77284 -0.0266,-0.25418 -0.0642,-0.50468 -0.11451,-0.75089 -0.0503,-0.24619 -0.11303,-0.48805 -0.18671,-0.72491 a 0.27012236,0.27012236 0 0 0 -0.26305,-0.19352 z m -14.10668,0.69864 a 0.27012236,0.27012236 0 0 0 -0.26157,0.21955 c -0.0503,0.24618 -0.0891,0.49669 -0.11481,0.75089 -0.0266,0.25417 -0.0385,0.51198 -0.0385,0.77284 0,0.26098 0.0118,0.51894 0.0385,0.77314 0.0266,0.25417 0.0645,0.50468 0.11481,0.75089 0.0503,0.24618 0.11243,0.48805 0.18611,0.72494 0.0737,0.23701 0.1586,0.46881 0.25447,0.69505 0.0956,0.22636 0.2021,0.44689 0.31862,0.66124 a 0.27012236,0.27012236 0 1 0 0.47458,-0.25802 c -0.108,-0.19884 -0.20683,-0.40363 -0.2956,-0.61363 -0.0888,-0.21008 -0.16777,-0.42546 -0.23612,-0.64528 -0.0684,-0.21985 -0.12634,-0.44417 -0.1731,-0.67271 -0.0467,-0.22843 -0.0825,-0.46086 -0.10652,-0.69695 -0.0237,-0.23612 -0.0364,-0.47601 -0.0364,-0.71861 0,-0.24263 0.0118,-0.48207 0.0364,-0.71819 0.0237,-0.23612 0.0598,-0.46887 0.10652,-0.69739 a 0.27012236,0.27012236 0 0 0 -0.26748,-0.32782 z m 5.53758,2.72639 0.77799,0.84164 c -1.81731,1.94973 -3.6349,3.89907 -5.45222,5.8488 -0.33723,0.33487 -0.87265,0.33472 -1.20751,0 -0.33563,-0.3356 -0.33548,-0.87273 0.002,-1.20982 1.96,-1.82687 3.92005,-3.65363 5.88005,-5.4805 z m 10.86911,3.76468 a 0.27012236,0.27012236 0 0 0 -0.23435,0.1444 c -0.15771,0.28997 -0.32918,0.57299 -0.51402,0.84661 a 0.27013755,0.27013755 0 1 0 0.44777,0.30225 c 0.19441,-0.2879 0.37523,-0.58537 0.54113,-0.89079 a 0.27012236,0.27012236 0 0 0 -0.24056,-0.40238 z m -12.73563,1.39289 a 0.27012236,0.27012236 0 0 0 -0.12872,0.50917 c 0.21423,0.11629 0.43485,0.22281 0.66109,0.31862 0.22636,0.0956 0.45819,0.18079 0.69508,0.25447 0.23671,0.0737 0.47873,0.13581 0.72494,0.18611 0.24618,0.0503 0.4971,0.0891 0.7513,0.11481 0.25417,0.0266 0.51187,0.0391 0.77273,0.0391 0.26098,0 0.51864,-0.0118 0.77284,-0.0391 0.25417,-0.0266 0.50468,-0.0645 0.75086,-0.11481 0.24618,-0.0503 0.48805,-0.11244 0.72494,-0.18611 0.23701,-0.0737 0.46884,-0.1589 0.69508,-0.25447 a 0.27012236,0.27012236 0 1 0 -0.21008,-0.49766 c -0.21009,0.0888 -0.42535,0.16777 -0.64517,0.23612 -0.21985,0.0684 -0.44419,0.12635 -0.67271,0.1731 -0.22843,0.0468 -0.46139,0.0826 -0.69751,0.10652 -0.23612,0.0237 -0.47556,0.0364 -0.71816,0.0364 -0.24264,0 -0.48237,-0.0118 -0.71849,-0.0364 -0.23613,-0.0237 -0.46858,-0.0598 -0.6971,-0.10652 -0.22843,-0.0467 -0.45286,-0.10475 -0.67271,-0.1731 -0.21985,-0.0684 -0.43517,-0.14736 -0.64517,-0.23612 -0.21008,-0.0888 -0.41472,-0.1873 -0.61371,-0.29531 a 0.27012236,0.27012236 0 0 0 -0.1293,-0.0346 z"/></g><text x="0" y="41.458334" fill="#000000" font-size="5px" font-weight="bold" font-family="'Helvetica Neue', Helvetica, Arial-Unicode, Arial, Sans-serif">Created by Normansyah</text><text x="0" y="46.458334" fill="#000000" font-size="5px" font-weight="bold" font-family="'Helvetica Neue', Helvetica, Arial-Unicode, Arial, Sans-serif">from the Noun Project</text></svg>