<svg xmlns:rdf="http://www.w3.org/1999/02/22-rdf-syntax-ns#" xmlns="http://www.w3.org/2000/svg" xmlns:cc="http://creativecommons.org/ns#" xmlns:dc="http://purl.org/dc/elements/1.1/" version="1.1" x="0px" y="0px" viewBox="0 0 100 125"><g transform="translate(0,-952.36218)"><path style="baseline-shift:baseline;block-progression:tb;color:#000000;direction:ltr;text-indent:0;enable-background:accumulate;text-transform:none;" fill="#000" d="m22.288,959.78a1.0001,1.0001,0,0,0,-0.65625,0.34375l-14.626,16.73a1.0001,1.0001,0,0,0,-0.09375,1.2188v10.312,0.0312c-0.090494,1.8896,1.0209,3.5215,2.6875,4.5625,1.1219,0.70075,2.5013,1.1676,4.0625,1.4062a1.0001,1.0001,0,0,0,0,0.15625l0.5625,42.594h-3.2188a1.0001,1.0001,0,0,0,-0.09375,0,1.0001,1.0001,0,0,0,-0.90625,1v5.8125a1.0001,1.0001,0,0,0,1,1h78.156a1.0001,1.0001,0,0,0,1,-1v-5.8125a1.0001,1.0001,0,0,0,-1,-1h-3.2188l0.25-42.219a1.0001,1.0001,0,0,0,-0.15625,-0.5625c1.421-0.26151,2.7321-0.75233,3.8438-1.4062,1.7787-1.0463,3.1103-2.638,3.2188-4.5938a1.0001,1.0001,0,0,0,0,-0.0312v-10.281a1.0001,1.0001,0,0,0,-0.125,-1.2188l-15.844-16.719a1.0001,1.0001,0,0,0,-0.71875,-0.3125h-54.031a1.0001,1.0001,0,0,0,-0.09375,0zm0.53125,2,10.219,0-8.9688,14.719-14.125,0,12.875-14.719zm12.594,0,9.5625,0-4.1562,14.719-14.406,0,9-14.719zm11.656,0,5.8438,0,4.2188,14.719-14.281,0,4.2188-14.719zm7.9688,0,9.5625,0,9,14.719-14.406,0-4.1562-14.719zm11.906,0,9,0,13.969,14.719-14,0-8.9688-14.719zm-58.031,16.719,14.563,0a1.0001,1.0001,0,0,0,0,0.1875v9.8125c0,0.24909,0.02276,0.51079,0.0625,0.75-0.30772,0.69339-0.90242,1.341-1.8125,1.9062-1.3753,0.85421-3.3693,1.4062-5.625,1.4062-2.2726,0-4.2189-0.50057-5.4688-1.2812-1.2498-0.78068-1.8105-1.7119-1.75-2.8125a1.0001,1.0001,0,0,0,0.03125,-0.0625v-9.9062zm16.875,0,14.375,0,0,9.25c0,0.42165,0.08363,0.82551,0.1875,1.2188-0.16539,0.89984-0.83419,1.752-1.9688,2.4688-1.3243,0.83657-3.2625,1.4062-5.4375,1.4062s-4.1306-0.56798-5.4688-1.4062c-0.98675-0.61816-1.5867-1.33-1.8438-2.0938,0.10205-0.37845,0.15625-0.78236,0.15625-1.1875v-9.6562zm16.594,0,14.656,0,0,9.25c0,1.1332-0.67664,2.2249-2,3.0938-1.3234,0.86886-3.2379,1.4375-5.4062,1.4375-2.1684,0-4.1316-0.56692-5.4688-1.4375-0.92702-0.60357-1.5299-1.3069-1.8125-2.0625,0.0058-0.0919,0.03125-0.18807,0.03125-0.28125v-10zm16.906,0,14.875,0,0,9.1875c0,1.1332-0.67664,2.1936-2,3.0625-1.3234,0.86886-3.2379,1.4688-5.4062,1.4688-2.1684,0-4.1316-0.59817-5.4688-1.4688-1.3371-0.87058-2-1.9348-2-3.0625v-9.1875zm16.906,0,14.906,0,0,9.75c-0.06188,1.1164-0.8185,2.1451-2.2188,2.9688-1.4002,0.82365-3.3975,1.3438-5.5,1.3438-2.084,0-3.9334-0.57171-5.2188-1.4375-1.2853-0.86579-1.9688-1.9523-1.9688-3.0938v-9.5312zm-18,12c0.51224,0.75021,1.2125,1.4044,2.0312,1.9375,1.7292,1.1258,4.0137,1.7812,6.5312,1.7812,2.5176,0,4.7826-0.6537,6.5-1.7812,0.69829-0.45847,1.3021-1.0035,1.7812-1.625,0.49729,0.76616,1.1928,1.425,2,1.9688,1.6785,1.1306,3.8984,1.7812,6.3438,1.7812,0.2929,0,0.58663,0.0167,0.875,0a1.0001,1.0001,0,0,0,-0.0625,0.34375l-0.25,42.094h-4.4062v-33.406a1.0001,1.0001,0,0,0,-0.8125,-1,1.0001,1.0001,0,0,0,-0.1875,0h-14.5-43.25a1.0001,1.0001,0,0,0,-0.1875,0,1.0001,1.0001,0,0,0,-0.8125,1v26.25a1.0001,1.0001,0,0,0,1,1h42.25v6.1562h-46.812l-0.5625-42.438c0.14767,0.004,0.28764,0,0.4375,0,2.586,0,4.921-0.62159,6.6875-1.7188,0.66243-0.41143,1.2432-0.88337,1.7188-1.4375,0.49963,0.66173,1.1502,1.2451,1.9062,1.7188,1.7282,1.0826,4.0203,1.7188,6.5312,1.7188,2.511,0,4.7835-0.63442,6.5-1.7188,0.8376-0.52913,1.5764-1.1781,2.0938-1.9375,0.43353,0.49393,0.94826,0.93292,1.5312,1.3125,1.7292,1.1258,4.0449,1.7812,6.5625,1.7812s4.7826-0.6537,6.5-1.7812c0.83803-0.55021,1.5529-1.2205,2.0625-2zm-36.406,14.094,41.25,0,0,24.25-41.25,0,0-24.25zm43.25,0,12.5,0,0,32.406-12.5,0,0-6.9687a1.0001,1.0001,0,0,0,0,-0.1875v-25.25zm-27.75,3.7188-0.28125,0.1875-5.6562,5.6563-0.28125,0.8437,0.5,0.75,0.90625,0.031,0.28125-0.1875,5.6562-5.6563,0.28125-0.875-0.5-0.7188-0.90625-0.031zm5.625,1.4375-0.3125,0.2187-2.6562,2.6563-0.28125,0.8438,0.5,0.75,0.90625,0.031,0.28125-0.2187,2.6875-2.6563,0.28125-0.8438-0.53125-0.75-0.875-0.031zm-5.5,5.5-0.3125,0.2188-1.4062,1.4062-0.28125,0.8438,0.5,0.75,0.90625,0.031,0.28125-0.2187,1.4375-1.4063,0.28125-0.8437-0.53125-0.75-0.875-0.031zm-8.5938,1.5313-0.28125,0.2187-1.4375,1.4063-0.28125,0.8437,0.53125,0.75,0.875,0.031,0.3125-0.2188,1.4062-1.4062,0.28125-0.8438-0.5-0.75-0.90625-0.031zm4.3438,2.7187-0.28125,0.1875-5.6562,5.6563-0.3125,0.875,0.53125,0.7187,0.90625,0.031,0.28125-0.1875,5.6562-5.6563,0.28125-0.875-0.53125-0.7187-0.875-0.031zm35.906,0.6563c-0.83829,0-1.5312,0.6617-1.5312,1.5s0.69296,1.5312,1.5312,1.5312c0.83829,0,1.5-0.6929,1.5-1.5312s-0.66171-1.5-1.5-1.5zm-57.062,18.969,76.156,0,0,3.8125-76.156,0,0-3.8125z"/></g><text x="0" y="115" fill="#000000" font-size="5px" font-weight="bold" font-family="'Helvetica Neue', Helvetica, Arial-Unicode, Arial, Sans-serif">Created by Jeehan@design</text><text x="0" y="120" fill="#000000" font-size="5px" font-weight="bold" font-family="'Helvetica Neue', Helvetica, Arial-Unicode, Arial, Sans-serif">from the Noun Project</text></svg>