<svg xmlns="http://www.w3.org/2000/svg" xmlns:xlink="http://www.w3.org/1999/xlink" version="1.1" x="0px" y="0px" viewBox="0 0 100 125" style="enable-background:new 0 0 100 100;" xml:space="preserve"><path d="M68.79,67.66l1.12-1.12c0.23-0.23,0.35-0.53,0.35-0.86c0-0.32-0.13-0.63-0.35-0.86l-2.47-2.47l1.5-1.5  c0.23-0.23,0.35-0.53,0.35-0.86c0-0.32-0.13-0.63-0.35-0.86L38.19,28.4l2.74-2.74c0.47-0.47,0.47-1.24,0-1.71  c-0.47-0.47-1.24-0.47-1.71,0l-7.08,7.08l-5.46-5.46l3.48-3.48c0.47-0.47,0.47-1.24,0-1.71c-0.47-0.47-1.24-0.47-1.71,0l-8.66,8.66  c-0.47,0.47-0.47,1.24,0,1.71c0.24,0.24,0.55,0.35,0.86,0.35s0.62-0.12,0.86-0.35l3.48-3.48l5.46,5.46l-7.08,7.08  c-0.47,0.47-0.47,1.24,0,1.71c0.24,0.24,0.55,0.35,0.86,0.35c0.31,0,0.62-0.12,0.86-0.35l2.74-2.74l8.33,8.33v2.36  c-0.98,0.09-1.93,0.28-2.84,0.57l-0.39-0.94c-0.26-0.62-0.97-0.91-1.58-0.65c-0.62,0.26-0.91,0.97-0.65,1.58l0.4,0.94  c-0.82,0.44-1.59,0.95-2.29,1.54l-2.05-2.05c-0.47-0.47-1.24-0.47-1.71,0c-0.47,0.47-0.47,1.24,0,1.71l2.05,2.05  c-0.62,0.74-1.15,1.55-1.6,2.41l-0.95-0.39c-0.62-0.25-1.33,0.04-1.58,0.66c-0.25,0.62,0.04,1.33,0.66,1.58l0.94,0.39  c-0.27,0.87-0.45,1.78-0.53,2.72h-2.89c-0.67,0-1.21,0.54-1.21,1.21c0,0.67,0.54,1.21,1.21,1.21h2.89c0.09,0.98,0.28,1.93,0.57,2.84  l-0.94,0.39c-0.62,0.26-0.91,0.97-0.65,1.58c0.19,0.46,0.64,0.74,1.12,0.74c0.16,0,0.32-0.03,0.47-0.09l0.94-0.4  c0.44,0.82,0.95,1.59,1.54,2.29l-2.05,2.05c-0.47,0.47-0.47,1.24,0,1.71c0.24,0.24,0.55,0.35,0.86,0.35c0.31,0,0.62-0.12,0.86-0.35  l2.05-2.05c0.74,0.62,1.55,1.15,2.41,1.6l-0.39,0.95c-0.25,0.62,0.04,1.33,0.66,1.58c0.15,0.06,0.3,0.09,0.46,0.09  c0.48,0,0.93-0.28,1.12-0.75l0.39-0.94c0.87,0.27,1.78,0.45,2.72,0.53v2.89c0,0.67,0.54,1.21,1.21,1.21c0.67,0,1.21-0.54,1.21-1.21  v-2.89c0.98-0.09,1.93-0.28,2.84-0.57l0.39,0.94c0.19,0.46,0.64,0.74,1.12,0.74c0.16,0,0.32-0.03,0.47-0.09  c0.62-0.26,0.91-0.97,0.65-1.58l-0.4-0.94c0.82-0.44,1.59-0.95,2.29-1.54l2.05,2.05c0.24,0.24,0.55,0.35,0.86,0.35  s0.62-0.12,0.86-0.35c0.47-0.47,0.47-1.24,0-1.71l-2.05-2.05c0.62-0.74,1.15-1.55,1.6-2.41l0.95,0.39c0.15,0.06,0.3,0.09,0.46,0.09  c0.48,0,0.93-0.28,1.12-0.75c0.25-0.62-0.04-1.33-0.66-1.58l-0.94-0.39c0.27-0.87,0.45-1.78,0.53-2.72h2.36l5.51,5.51  c0.24,0.24,0.55,0.35,0.86,0.35s0.62-0.12,0.86-0.35l1.5-1.5l2.47,2.47c0.24,0.24,0.55,0.35,0.86,0.35c0.31,0,0.62-0.12,0.86-0.35  l1.12-1.12l9.18,9.18c0.24,0.24,0.55,0.35,0.86,0.35s0.62-0.12,0.86-0.35c0.47-0.47,0.47-1.24,0-1.71L68.79,67.66z M47.39,58.35  c0.01,0.02,0.01,0.04,0.02,0.06c0.61,1.39,0.91,2.86,0.91,4.39c0,6.05-4.92,10.97-10.97,10.97s-10.97-4.92-10.97-10.97  s4.92-10.97,10.97-10.97c1.56,0,3.07,0.33,4.48,0.96L47.39,58.35z M59.42,66.96l-4.85-4.85c-0.08-0.11-0.17-0.2-0.28-0.28  L38.34,45.88c-0.08-0.11-0.18-0.21-0.29-0.29l-8.52-8.52l6.95-6.95L66.37,60L59.42,66.96z M65.1,67.93l-1.62-1.62l2.25-2.25  l1.62,1.62L65.1,67.93z"/><path d="M59.98,57.85c-0.47-0.47-1.24-0.47-1.71,0l-1.01,1.01c-0.47,0.47-0.47,1.24,0,1.71c0.24,0.24,0.55,0.35,0.86,0.35  c0.31,0,0.62-0.12,0.86-0.35l1.01-1.01C60.46,59.09,60.46,58.32,59.98,57.85z"/><path d="M53.74,53.31l-1.01,1.01c-0.47,0.47-0.47,1.24,0,1.71c0.24,0.24,0.55,0.35,0.86,0.35c0.31,0,0.62-0.12,0.86-0.35l1.01-1.01  c0.47-0.47,0.47-1.24,0-1.71C54.98,52.84,54.21,52.84,53.74,53.31z"/><path d="M49.2,48.78l-1.01,1.01c-0.47,0.47-0.47,1.24,0,1.71c0.24,0.24,0.55,0.35,0.86,0.35c0.31,0,0.62-0.12,0.86-0.35l1.01-1.01  c0.47-0.47,0.47-1.24,0-1.71C50.44,48.3,49.67,48.3,49.2,48.78z"/><path d="M44.66,44.24l-1.01,1.01c-0.47,0.47-0.47,1.24,0,1.71c0.24,0.24,0.55,0.35,0.86,0.35c0.31,0,0.62-0.12,0.86-0.35l1.01-1.01  c0.47-0.47,0.47-1.24,0-1.71C45.9,43.77,45.14,43.77,44.66,44.24z"/><path d="M40.13,39.7l-1.01,1.01c-0.47,0.47-0.47,1.24,0,1.71c0.24,0.24,0.55,0.35,0.86,0.35s0.62-0.12,0.86-0.35l1.01-1.01  c0.47-0.47,0.47-1.24,0-1.71C41.37,39.23,40.6,39.23,40.13,39.7z"/><path d="M79.36,37.99h-1.68c-0.06-0.47-0.15-0.93-0.28-1.38l0.36-0.15c0.62-0.26,0.91-0.97,0.65-1.58  c-0.26-0.62-0.97-0.91-1.58-0.65l-0.36,0.15c-0.22-0.38-0.47-0.75-0.74-1.09l1.19-1.19c0.47-0.47,0.47-1.24,0-1.71  c-0.47-0.47-1.24-0.47-1.71,0L74,31.57c-0.37-0.29-0.76-0.55-1.17-0.79l0.15-0.36c0.25-0.62-0.04-1.33-0.66-1.58  c-0.62-0.25-1.33,0.04-1.58,0.66l-0.15,0.36c-0.42-0.11-0.85-0.2-1.3-0.26v-1.68c0-0.67-0.54-1.21-1.21-1.21s-1.21,0.54-1.21,1.21  v1.68c-0.47,0.06-0.93,0.15-1.38,0.28l-0.15-0.36c-0.26-0.62-0.97-0.91-1.58-0.65c-0.62,0.26-0.91,0.97-0.65,1.58l0.15,0.36  c-0.38,0.22-0.75,0.47-1.09,0.74l-1.19-1.19c-0.47-0.47-1.24-0.47-1.71,0c-0.47,0.47-0.47,1.24,0,1.71l1.19,1.19  c-0.29,0.37-0.55,0.76-0.79,1.17l-0.36-0.15c-0.62-0.25-1.33,0.04-1.58,0.66c-0.25,0.62,0.04,1.33,0.66,1.58l0.36,0.15  c-0.11,0.42-0.2,0.85-0.26,1.3h-1.68c-0.67,0-1.21,0.54-1.21,1.21c0,0.67,0.54,1.21,1.21,1.21h1.68c0.06,0.47,0.15,0.94,0.28,1.38  l-0.36,0.15c-0.62,0.26-0.91,0.97-0.65,1.58c0.19,0.46,0.64,0.74,1.12,0.74c0.16,0,0.32-0.03,0.47-0.09l0.36-0.15  c0.22,0.38,0.47,0.75,0.74,1.09l-1.19,1.19c-0.47,0.47-0.47,1.24,0,1.71c0.24,0.24,0.55,0.35,0.86,0.35c0.31,0,0.62-0.12,0.86-0.35  l1.19-1.19c0.37,0.29,0.76,0.55,1.17,0.79l-0.15,0.36c-0.25,0.62,0.04,1.33,0.66,1.58c0.15,0.06,0.3,0.09,0.46,0.09  c0.48,0,0.93-0.28,1.12-0.75l0.15-0.36c0.42,0.11,0.85,0.2,1.3,0.26v1.68c0,0.67,0.54,1.21,1.21,1.21s1.21-0.54,1.21-1.21v-1.68  c0.47-0.06,0.94-0.15,1.38-0.28l0.15,0.36c0.19,0.46,0.64,0.74,1.12,0.74c0.16,0,0.32-0.03,0.47-0.09c0.62-0.26,0.91-0.97,0.65-1.58  l-0.15-0.36c0.38-0.22,0.75-0.47,1.09-0.74l1.19,1.19c0.24,0.24,0.55,0.35,0.86,0.35s0.62-0.12,0.86-0.35  c0.47-0.47,0.47-1.24,0-1.71l-1.19-1.19c0.29-0.37,0.55-0.76,0.79-1.17l0.36,0.15c0.15,0.06,0.3,0.09,0.46,0.09  c0.48,0,0.93-0.28,1.12-0.75c0.25-0.62-0.04-1.33-0.66-1.58l-0.36-0.15c0.11-0.42,0.2-0.85,0.26-1.3h1.68  c0.67,0,1.21-0.54,1.21-1.21C80.57,38.53,80.02,37.99,79.36,37.99z M68.08,46.45c-4,0-7.25-3.25-7.25-7.25s3.25-7.25,7.25-7.25  s7.25,3.25,7.25,7.25S72.08,46.45,68.08,46.45z"/><path d="M63.37,36.57c0.23,0.23,0.53,0.35,0.84,0.35c0.31,0,0.62-0.12,0.86-0.36c0.47-0.47,0.46-1.25-0.01-1.73  c-0.47-0.47-1.24-0.47-1.71,0c-0.47,0.47-0.47,1.24,0,1.71L63.37,36.57z"/><path d="M70.92,42.41c-0.47,0.47-0.47,1.24,0,1.71l0.03,0.03c0.23,0.23,0.53,0.35,0.84,0.35c0.31,0,0.62-0.12,0.86-0.36  c0.47-0.47,0.46-1.25-0.01-1.73C72.16,41.94,71.39,41.94,70.92,42.41z"/><path d="M63.34,42.44c-0.47,0.47-0.47,1.24,0,1.71c0.24,0.24,0.55,0.35,0.86,0.35s0.62-0.12,0.86-0.35l0.03-0.03  c0.47-0.47,0.46-1.23-0.01-1.7C64.59,41.95,63.81,41.97,63.34,42.44z"/><path d="M71.77,36.93c0.31,0,0.62-0.12,0.86-0.35l0.03-0.03c0.47-0.47,0.46-1.23-0.01-1.7c-0.47-0.47-1.25-0.46-1.73,0.01  c-0.47,0.47-0.47,1.24,0,1.71C71.15,36.81,71.46,36.93,71.77,36.93z"/><path d="M65.87,38.28c-0.67,0-1.21,0.54-1.21,1.21c0,0.67,0.54,1.21,1.21,1.21h0.04c0.67,0,1.19-0.54,1.19-1.21  C67.1,38.82,66.53,38.28,65.87,38.28z"/><path d="M63.85,39.49c0-0.67-0.56-1.21-1.23-1.21c-0.67,0-1.21,0.54-1.21,1.21c0,0.67,0.54,1.21,1.21,1.21h0.04  C63.33,40.7,63.85,40.16,63.85,39.49z"/><path d="M72.13,39.49c0,0.67,0.54,1.21,1.21,1.21h0.04c0.67,0,1.19-0.54,1.19-1.21c0-0.67-0.56-1.21-1.23-1.21  C72.67,38.28,72.13,38.82,72.13,39.49z"/><path d="M71.32,39.49c0-0.67-0.56-1.21-1.23-1.21c-0.67,0-1.21,0.54-1.21,1.21c0,0.67,0.54,1.21,1.21,1.21h0.04  C70.8,40.7,71.32,40.16,71.32,39.49z"/><path d="M68,40.39c-0.67,0-1.21,0.56-1.21,1.23c0,0.67,0.54,1.21,1.21,1.21c0.67,0,1.21-0.54,1.21-1.21v-0.04  C69.21,40.91,68.67,40.39,68,40.39z"/><path d="M68,43.64c-0.67,0-1.21,0.56-1.21,1.23c0,0.67,0.54,1.21,1.21,1.21c0.67,0,1.21-0.54,1.21-1.21v-0.04  C69.21,44.16,68.67,43.64,68,43.64z"/><path d="M68,35.36c0.67,0,1.21-0.54,1.21-1.21v-0.04c0-0.67-0.54-1.19-1.21-1.19c-0.67,0-1.21,0.56-1.21,1.23  C66.79,34.82,67.33,35.36,68,35.36z"/><path d="M68,38.61c0.67,0,1.21-0.54,1.21-1.21v-0.04c0-0.67-0.54-1.19-1.21-1.19c-0.67,0-1.21,0.56-1.21,1.23  C66.79,38.07,67.33,38.61,68,38.61z"/><path d="M46.51,27.22h0.16c0.12,0.49,0.32,0.96,0.58,1.38l-0.12,0.12c-0.47,0.47-0.47,1.24,0,1.71c0.24,0.24,0.55,0.35,0.86,0.35  c0.31,0,0.62-0.12,0.86-0.35l0.13-0.13c0.42,0.25,0.88,0.44,1.37,0.56v0.19c0,0.67,0.54,1.21,1.21,1.21c0.67,0,1.21-0.54,1.21-1.21  v-0.21c0.48-0.12,0.93-0.32,1.34-0.57l0.16,0.16c0.24,0.24,0.55,0.35,0.86,0.35s0.62-0.12,0.86-0.35c0.47-0.47,0.47-1.24,0-1.71  l-0.17-0.17c0.24-0.41,0.43-0.86,0.55-1.33h0.24c0.67,0,1.21-0.54,1.21-1.21s-0.54-1.21-1.21-1.21h-0.24  c-0.12-0.48-0.31-0.92-0.55-1.33l0.17-0.17c0.47-0.47,0.47-1.24,0-1.71c-0.47-0.47-1.24-0.47-1.71,0l-0.16,0.16  c-0.41-0.25-0.86-0.44-1.34-0.57v-0.21c0-0.67-0.54-1.21-1.21-1.21c-0.67,0-1.21,0.54-1.21,1.21v0.19  c-0.49,0.12-0.95,0.31-1.37,0.56l-0.13-0.13c-0.47-0.47-1.24-0.47-1.71,0c-0.47,0.47-0.47,1.24,0,1.71l0.12,0.12  c-0.26,0.42-0.45,0.89-0.58,1.38h-0.16c-0.67,0-1.21,0.54-1.21,1.21S45.85,27.22,46.51,27.22z M49.74,24.19  c0.03-0.03,0.05-0.06,0.07-0.09c0.46-0.41,1.05-0.66,1.71-0.66c1.42,0,2.58,1.16,2.58,2.58s-1.16,2.58-2.58,2.58  c-0.66,0-1.25-0.26-1.71-0.66c-0.03-0.03-0.05-0.06-0.08-0.09c-0.03-0.03-0.07-0.06-0.11-0.09c-0.38-0.41-0.62-0.95-0.66-1.54  c0.01-0.06,0.02-0.12,0.02-0.19c0-0.06-0.01-0.13-0.02-0.19c0.04-0.59,0.28-1.13,0.66-1.54C49.66,24.25,49.7,24.22,49.74,24.19z"/><path d="M30.94,58.65c0.23,0.23,0.53,0.34,0.82,0.34c0.31,0,0.63-0.12,0.87-0.37c0.47-0.47,0.45-1.26-0.03-1.73  c-0.47-0.47-1.24-0.47-1.71,0.01c-0.47,0.47-0.47,1.24,0.01,1.71L30.94,58.65z"/><path d="M41.81,67.81c-0.47,0.47-0.47,1.24,0,1.71l0.04,0.04c0.23,0.23,0.53,0.34,0.83,0.34c0.31,0,0.62-0.12,0.87-0.36  c0.47-0.47,0.45-1.26-0.02-1.73C43.05,67.33,42.28,67.33,41.81,67.81z"/><path d="M30.9,67.85c-0.47,0.47-0.47,1.24,0,1.71c0.24,0.24,0.55,0.35,0.86,0.35c0.31,0,0.62-0.12,0.86-0.35l0.04-0.04  c0.47-0.47,0.45-1.22-0.02-1.69C32.16,67.36,31.37,67.38,30.9,67.85z"/><path d="M41.81,56.93c-0.47,0.47-0.48,1.24-0.01,1.71c0.24,0.24,0.55,0.36,0.86,0.36c0.31,0,0.62-0.12,0.85-0.35l0.04-0.04  c0.47-0.47,0.46-1.22-0.01-1.69C43.07,56.44,42.29,56.46,41.81,56.93z"/><path d="M34.16,62.02c-0.67,0-1.21,0.54-1.21,1.21c0,0.67,0.54,1.21,1.21,1.21h0.06c0.67,0,1.18-0.54,1.18-1.21  C35.4,62.56,34.83,62.02,34.16,62.02z"/><path d="M29.48,62.02c-0.67,0-1.21,0.54-1.21,1.21c0,0.67,0.54,1.21,1.21,1.21h0.06c0.67,0,1.18-0.54,1.18-1.21  C30.72,62.56,30.15,62.02,29.48,62.02z"/><path d="M44.92,64.44h0.06c0.67,0,1.18-0.54,1.18-1.21c0-0.67-0.57-1.21-1.24-1.21c-0.67,0-1.21,0.54-1.21,1.21  C43.71,63.9,44.25,64.44,44.92,64.44z"/><path d="M40.24,62.02c-0.67,0-1.21,0.54-1.21,1.21c0,0.67,0.54,1.21,1.21,1.21h0.06c0.67,0,1.18-0.54,1.18-1.21  C41.48,62.56,40.91,62.02,40.24,62.02z"/><path d="M37.23,65.06c-0.67,0-1.21,0.57-1.21,1.24s0.54,1.21,1.21,1.21c0.67,0,1.21-0.54,1.21-1.21v-0.06  C38.44,65.57,37.9,65.06,37.23,65.06z"/><path d="M37.23,69.73c-0.67,0-1.21,0.57-1.21,1.24s0.54,1.21,1.21,1.21c0.67,0,1.21-0.54,1.21-1.21v-0.06  C38.44,70.25,37.9,69.73,37.23,69.73z"/><path d="M37.23,54.3c-0.67,0-1.21,0.57-1.21,1.24c0,0.67,0.54,1.21,1.21,1.21c0.67,0,1.21-0.54,1.21-1.21v-0.06  C38.44,54.81,37.9,54.3,37.23,54.3z"/><path d="M37.23,58.98c-0.67,0-1.21,0.57-1.21,1.24c0,0.67,0.54,1.21,1.21,1.21c0.67,0,1.21-0.54,1.21-1.21v-0.06  C38.44,59.49,37.9,58.98,37.23,58.98z"/><text x="0" y="115" fill="#000000" font-size="5px" font-weight="bold" font-family="'Helvetica Neue', Helvetica, Arial-Unicode, Arial, Sans-serif">Created by Joao Filho</text><text x="0" y="120" fill="#000000" font-size="5px" font-weight="bold" font-family="'Helvetica Neue', Helvetica, Arial-Unicode, Arial, Sans-serif">from the Noun Project</text></svg>